# xmcd CD database file
#
# Track frame offsets:
#	150
#	44548
#	94214
#	152163
#	169522
#
# Disc length: 2774 seconds
#
# Revision: 0
# Processed by: cddbd v1.5.2PL0 Copyright (c) Steve Scherf et al.
# Submitted via: CDex 1.51
#
DISCID=370ad405
DTITLE=he Earl Hines - Recorded live at the Village Vanguard with Roy Eldridge and Coleman Hawkins, 1
DYEAR=1995
DGENRE=Jazz
TTITLE0=Portraits of Fats Waller
TTITLE1=C-Jam Blues
TTITLE2=Sunday
TTITLE3=Broadway Medley: Baubles, Bangles And Beads - Tea For Two
TTITLE4=Sweet Georgia Brow
EXTD=YEAR: 1995
EXTT0=
EXTT1=
EXTT2=
EXTT3=
EXTT4=
PLAYORDER=
